FILE "Samurai Spirits - Amakusa Kourin Soundtrack (1996)(Pony Canyon)(JP)[CD-Audio].img" BINARY
  TRACK 01 AUDIO
    ISRC JPPC09632840
    INDEX 01 00:00:00
  TRACK 02 AUDIO
    ISRC JPPC09632850
    INDEX 01 01:02:60
  TRACK 03 AUDIO
    ISRC JPPC09632860
    INDEX 01 01:42:67
  TRACK 04 AUDIO
    ISRC JPPC09632870
    INDEX 01 01:47:52
  TRACK 05 AUDIO
    ISRC JPPC09632880
    INDEX 01 01:56:62
  TRACK 06 AUDIO
    ISRC JPPC09632890
    INDEX 01 04:04:10
  TRACK 07 AUDIO
    ISRC JPPC09632900
    INDEX 01 04:21:12
  TRACK 08 AUDIO
    ISRC JPPC09632910
    INDEX 01 06:39:67
  TRACK 09 AUDIO
    ISRC JPPC09632920
    INDEX 01 09:07:00
  TRACK 10 AUDIO
    ISRC JPPC09632930
    INDEX 01 11:44:32
  TRACK 11 AUDIO
    ISRC JPPC09632940
    INDEX 01 14:42:50
  TRACK 12 AUDIO
    ISRC JPPC09632950
    INDEX 01 15:00:72
  TRACK 13 AUDIO
    ISRC JPPC09632960
    INDEX 01 15:45:47
  TRACK 14 AUDIO
    ISRC JPPC09632970
    INDEX 01 16:55:70
  TRACK 15 AUDIO
    ISRC JPPC09632980
    INDEX 01 20:28:35
  TRACK 16 AUDIO
    ISRC JPPC09632990
    INDEX 01 23:41:42
  TRACK 17 AUDIO
    ISRC JPPC09633000
    INDEX 01 27:58:47
  TRACK 18 AUDIO
    ISRC JPPC09633010
    INDEX 01 31:04:17
  TRACK 19 AUDIO
    ISRC JPPC09633020
    INDEX 01 31:37:70
  TRACK 20 AUDIO
    ISRC JPPC09633030
    INDEX 01 34:44:10
  TRACK 21 AUDIO
    ISRC JPPC09633040
    INDEX 01 37:52:65
  TRACK 22 AUDIO
    ISRC JPPC09633050
    INDEX 01 39:58:35
  TRACK 23 AUDIO
    ISRC JPPC09633060
    INDEX 01 41:02:47
  TRACK 24 AUDIO
    ISRC JPPC09633070
    INDEX 01 41:50:17
  TRACK 25 AUDIO
    ISRC JPPC09633080
    INDEX 01 43:45:52
  TRACK 26 AUDIO
    ISRC JPPC09633090
    INDEX 01 44:51:15
  TRACK 27 AUDIO
    ISRC JPPC09633100
    INDEX 01 46:45:07
  TRACK 28 AUDIO
    ISRC JPPC09633110
    INDEX 01 47:50:62
  TRACK 29 AUDIO
    ISRC JPPC09633120
    INDEX 01 49:37:15
  TRACK 30 AUDIO
    ISRC JPPC09633130
    INDEX 01 51:26:32
  TRACK 31 AUDIO
    ISRC JPPC09633140
    INDEX 01 51:36:37
  TRACK 32 AUDIO
    ISRC JPPC09633150
    INDEX 01 53:53:12
  TRACK 33 AUDIO
    ISRC JPPC09633160
    INDEX 01 54:10:05
  TRACK 34 AUDIO
    ISRC JPPC09633170
    INDEX 01 55:19:10
  TRACK 35 AUDIO
    ISRC JPPC09633180
    INDEX 01 55:55:27
  TRACK 36 AUDIO
    ISRC JPPC09633190
    INDEX 01 57:45:45
  TRACK 37 AUDIO
    ISRC JPPC09633200
    INDEX 00 57:50:22
    INDEX 01 57:53:12
  TRACK 38 AUDIO
    ISRC JPPC09633210
    INDEX 01 58:37:05
  TRACK 39 AUDIO
    ISRC JPPC09633220
    INDEX 01 59:04:22
  TRACK 40 AUDIO
    ISRC JPPC09633230
    INDEX 01 59:48:72
  TRACK 41 AUDIO
    ISRC JPPC09633240
    INDEX 01 60:39:00
  TRACK 42 AUDIO
    ISRC JPPC09633250
    INDEX 01 61:18:10
  TRACK 43 AUDIO
    ISRC JPPC09633260
    INDEX 01 61:59:20
  TRACK 44 AUDIO
    ISRC JPPC09633270
    INDEX 01 62:32:62
  TRACK 45 AUDIO
    ISRC JPPC09633280
    INDEX 01 63:16:27
  TRACK 46 AUDIO
    ISRC JPPC09633290
    INDEX 01 64:01:10
  TRACK 47 AUDIO
    ISRC JPPC09633300
    INDEX 01 64:50:65
  TRACK 48 AUDIO
    ISRC JPPC09633310
    INDEX 01 65:22:20
  TRACK 49 AUDIO
    ISRC JPPC09633320
    INDEX 01 66:16:02
  TRACK 50 AUDIO
    ISRC JPPC09633330
    INDEX 01 66:52:60
  TRACK 51 AUDIO
    ISRC JPPC09633340
    INDEX 01 67:26:02
  TRACK 52 AUDIO
    ISRC JPPC09633350
    INDEX 01 68:11:02
  TRACK 53 AUDIO
    ISRC JPPC09633360
    INDEX 01 68:54:10
  TRACK 54 AUDIO
    ISRC JPPC09633370
    INDEX 01 70:38:40
  TRACK 55 AUDIO
    ISRC JPPC09633380
    INDEX 01 71:13:10
  TRACK 56 AUDIO
    ISRC JPPC09633390
    INDEX 01 72:07:30
